<?xml version="1.0" encoding="utf-8"?>
<!-- Generator: Adobe Illustrator 21.0.0, SVG Export Plug-In . SVG Version: 6.00 Build 0)  -->
<svg version="1.1" id="Layer_1" xmlns="http://www.w3.org/2000/svg" xmlns:xlink="http://www.w3.org/1999/xlink" x="0px" y="0px"
	 viewBox="0 0 512 512" style="enable-background:new 0 0 512 512;" xml:space="preserve">
<style type="text/css">
	.st0{fill:#F2F3F4;}
</style>
<g>
	<path class="st0" d="M256,167.8c-48.6,0-88.2,39.6-88.2,88.2c0,48.6,39.6,88.2,88.2,88.2c48.6,0,88.2-39.6,88.2-88.2
		C344.2,207.4,304.6,167.8,256,167.8z M256,306.9c-28.1,0-50.9-22.9-50.9-50.9c0-28.1,22.9-50.9,50.9-50.9
		c28.1,0,50.9,22.8,50.9,50.9C306.9,284.1,284.1,306.9,256,306.9z"/>
	<path class="st0" d="M347,144.3c-11.5,0-20.9,9.4-20.9,20.9s9.4,20.9,20.9,20.9c11.5,0,20.9-9.4,20.9-20.9
		C367.9,153.7,358.5,144.3,347,144.3z"/>
	<path class="st0" d="M340.8,84.8H171.2c-47.6,0-86.4,38.7-86.4,86.4v169.6c0,47.6,38.7,86.4,86.4,86.4h169.6
		c47.6,0,86.4-38.7,86.4-86.4V171.2C427.2,123.6,388.4,84.8,340.8,84.8z M389.9,340.8c0,27.1-22,49.1-49.1,49.1H171.2
		c-27.1,0-49.1-22-49.1-49.1V171.2c0-27.1,22-49.1,49.1-49.1h169.6c27.1,0,49.1,22,49.1,49.1V340.8z"/>
</g>
</svg>
