<?xml version="1.0" encoding="utf-8"?>
<!-- Generator: Adobe Illustrator 21.0.0, SVG Export Plug-In . SVG Version: 6.00 Build 0)  -->
<svg version="1.1" id="Capa_1" xmlns="http://www.w3.org/2000/svg" xmlns:xlink="http://www.w3.org/1999/xlink" x="0px" y="0px"
	 viewBox="0 0 512 512" style="enable-background:new 0 0 512 512;" xml:space="preserve">
<style type="text/css">
	.st0{fill:#F2F3F4;}
</style>
<path class="st0" d="M410.9,178.2c0.1,3,0.2,6,0.2,9.1c0,121.7-98.7,220.4-220.4,220.4c-43.3,0-83.7-12.5-117.8-34.1c0,0,0,0,0,0
	l0,0l0,0c66.6,9.9,113.5-32.5,113.5-32.5c-59.4-4.6-71.1-54-71.1-54c21,3.6,34.1-1.4,34.1-1.4c-66.8-15.6-61.1-76.8-61.1-76.8
	c15.5,9.2,33.4,10,33.4,10c-59-51.9-22-102.4-22-102.4c61.8,74.9,152.8,80,158.7,80.2c-1.3-5.6-2-11.5-2-17.5
	c0-42.7,34.6-77.3,77.3-77.3c22.3,0,42.3,9.4,56.5,24.5c3.9-1.1,7.7-2.3,11.3-3.5c21.9-7.3,37.5-15.7,37.5-15.7
	c-3.8,22.6-31.7,41.6-33.6,42.9c-0.1,0.1-0.1,0.1-0.1,0.1c0,0,0.1,0,0.1,0c21.6-2.2,43.8-11.4,43.8-11.4
	C442.5,152.9,415.3,174.7,410.9,178.2z"/>
</svg>
